<svg width="617" height="196" viewBox="0 0 617 196" fill="none" xmlns="http://www.w3.org/2000/svg">
                    <path d="M312.85 39.6665V42.8025L314.826 43.2598C316.144 43.5211 317.208 44.2398 317.866 45.3505C318.931 47.0491 318.931 47.5718 318.931 92.7171V138.32L317.41 139.365C316.6 139.888 315.231 140.345 314.37 140.345C312.951 140.345 312.85 140.541 312.85 142.632V144.918H324.758H336.666V143.089C336.666 141.456 336.362 141.129 334.639 140.41C333.524 140.018 332.409 139.104 332.105 138.385C331.801 137.601 331.649 132.897 331.7 126.364L331.852 115.649L338.794 128.193C345.331 139.888 345.685 140.672 344.52 140.868C343.507 141.064 343.253 141.456 343.253 143.024V144.918H354.401C360.532 144.918 365.549 144.722 365.549 144.526C365.549 144.33 359.671 133.681 352.526 120.876C343.709 105.065 339.453 96.8985 339.351 95.5918C339.199 93.9585 341.378 89.1238 351.513 68.4785C362.458 46.1345 363.978 43.2598 365.448 42.6718C366.917 42.1491 367.069 41.8225 367.069 39.6011V37.1185H354.654H342.24V39.6665C342.24 42.0838 342.341 42.2798 343.76 42.4758L345.28 42.6718L338.794 58.1558L332.359 73.5745L332.207 58.4825C332.105 46.8531 332.257 43.3251 332.713 42.8678C333.068 42.6065 334.69 42.3451 336.311 42.3451H339.199V39.4051V36.4651H326.025H312.85V39.6665Z" fill="#C13E14"/>
                    <path d="M2.12823 39.9278L4.25646 42.7371V89.9731C4.30713 141.652 4.40848 138.973 1.41882 139.953C0.405377 140.28 0.202689 140.802 0.202689 142.632V144.918H12.1106H24.0186V142.958C24.0186 141.129 23.9173 140.998 21.941 140.998C20.2689 140.998 19.5595 140.606 18.1406 138.777L16.4178 136.556V118.524C16.4178 104.542 16.5698 100.492 17.0765 100.492C17.4312 100.492 19.6101 108.658 22.7518 121.725L27.819 143.024L29.5419 142.828L31.2647 142.632L35.4705 124.992C37.8521 115.257 40.0817 105.784 40.5377 103.889C40.9938 101.864 41.6018 100.492 42.0579 100.492C43.122 100.492 43.122 133.42 42.0579 136.752C41.2471 139.234 39.0176 140.998 36.6866 140.998C35.3185 140.998 35.1665 141.194 35.1665 142.958V144.918H47.0744H58.9824V142.632C58.9824 140.737 58.7797 140.345 57.969 140.345C57.3609 140.345 56.3474 139.626 55.6887 138.712L54.4219 137.144V90.2345V43.3904L56.8035 40.2545L59.1851 37.1185H51.0269H42.818L37.2947 59.1358C34.2037 71.2878 31.3154 82.9171 30.8087 84.9425C30.302 87.0331 29.7952 88.7318 29.5925 88.7318C29.4405 88.7318 26.3495 77.1025 22.7518 62.9251L16.2151 37.1185H8.10755H0L2.12823 39.9278Z" fill="#C13E14"/>
                    <path d="M64.151 37.9025C63.2895 39.0131 63.2895 143.024 64.151 144.134C64.607 144.722 69.2182 144.918 81.8355 144.918C97.0879 144.918 98.9627 144.788 99.5708 143.808C100.179 142.958 100.28 133.942 100.28 91.0185C100.28 48.0945 100.179 39.0785 99.5708 38.2291C98.9627 37.2491 97.0879 37.1185 81.8355 37.1185C69.2182 37.1185 64.607 37.3145 64.151 37.9025ZM87.5615 50.5771C88.2709 51.4918 88.3722 56.0651 88.3722 91.0185C88.3722 125.972 88.2709 130.545 87.5615 131.46C86.4467 132.962 77.123 132.962 76.0082 131.46C75.2988 130.545 75.1975 125.972 75.1975 91.0185C75.1975 56.0651 75.2988 51.4918 76.0082 50.5771C76.6163 49.7931 77.9338 49.5318 81.7849 49.5318C85.636 49.5318 86.9534 49.7931 87.5615 50.5771Z" fill="#C13E14"/>
                    <path d="M107.526 39.9278L109.655 42.7371V89.9731C109.705 141.652 109.807 138.973 106.817 139.953C105.803 140.28 105.601 140.802 105.601 142.632V144.918H117.509H129.417V143.024C129.417 141.325 129.214 141.129 127.39 140.802C124.806 140.345 122.931 138.842 122.272 136.686C122.019 135.641 121.867 118.589 121.917 92.4558L122.069 49.8585L127.39 49.6625C130.329 49.5971 133.014 49.7931 133.42 50.1198C133.977 50.5771 134.129 54.0398 134.129 68.4131C134.129 85.1385 134.079 86.2491 133.116 87.9478C131.545 90.6918 128.15 92.6518 125.008 92.6518C123.539 92.6518 122.323 92.8478 122.373 93.1091C122.373 93.4358 123.741 95.0691 125.363 96.7678C129.366 100.949 132.964 107.221 136.004 115.192C138.74 122.509 140.058 128.52 140.058 133.942C140.058 137.209 139.906 137.797 138.487 139.3C137.575 140.28 136.308 140.998 135.447 140.998C134.129 140.998 133.977 141.26 133.977 142.958V144.918H142.287H150.648L150.395 140.149C149.331 119.7 146.392 105.196 142.034 99.4465L140.514 97.4211L141.679 96.7678C142.338 96.3758 143.605 95.2651 144.517 94.2851L146.138 92.5211V66.2571C146.138 43.5864 146.037 39.7971 145.328 38.5558L144.568 37.1185H124.958H105.398L107.526 39.9278Z" fill="#C13E14"/>
                    <path d="M152.726 47.7025L152.777 58.3518L153.689 56.0651C155.31 52.0798 156.476 51.2305 160.377 50.9691L163.874 50.7078V93.8278C163.874 117.544 163.722 137.47 163.57 138.058C163.164 139.43 160.732 140.998 159.009 140.998C157.996 140.998 157.742 141.26 157.996 142.044C158.148 142.632 158.3 143.481 158.3 144.004C158.3 144.788 160.175 144.918 169.448 144.918H180.596V142.958C180.596 141.26 180.444 140.998 179.126 140.998C178.366 140.998 177.099 140.41 176.339 139.626L175.022 138.32V94.4811V50.7078L178.417 50.9691C181.71 51.2305 181.812 51.2958 183.991 54.4318L186.17 57.6331V47.3758V37.1185H169.448H152.726V47.7025Z" fill="#C13E14"/>
                    <path d="M199.851 39.4051C199.851 41.2998 200.054 41.6918 200.864 41.6918C202.638 41.6918 204.411 44.7625 204.411 47.7678C204.411 51.0998 190.831 137.797 190.122 138.842C189.869 139.3 189.21 139.822 188.652 140.018C187.943 140.345 187.69 141.064 187.69 142.697V144.918H197.317H206.945V142.958C206.945 141.456 206.692 140.933 205.678 140.606C202.79 139.692 202.942 137.797 207.198 113.689C207.452 112.317 207.705 112.252 211.962 112.252H216.421L218.954 124.796C221.741 138.516 221.741 139.822 218.904 140.214C217.789 140.41 217.586 140.737 217.586 142.697V144.918H227.467H237.348V142.697C237.348 140.802 237.146 140.476 235.98 140.149C235.169 139.953 234.257 139.169 233.953 138.45C233.396 137.274 226.353 88.7318 221.336 51.2958L219.461 37.1185H209.631H199.851V39.4051Z" fill="#C13E14"/>
                    <path d="M241.402 39.3398C241.402 41.2998 241.554 41.5611 243.074 41.9531C243.986 42.1491 245.253 42.8025 245.861 43.3904L246.976 44.3705V90.4305V136.556L245.507 138.45C244.493 139.757 243.53 140.345 242.416 140.345C241.149 140.345 240.845 140.541 241.098 141.39C241.25 141.978 241.402 142.958 241.402 143.677C241.402 144.853 242.01 144.918 261.924 144.918H282.447V131.852V118.785H280.977C279.71 118.785 279.457 119.112 279.001 121.529C278.697 123.097 277.683 125.972 276.771 127.932C274.44 133.028 272.92 133.812 266.029 133.812H260.506L260.86 88.9278C261.114 59.5931 261.418 43.7171 261.772 43.1945C262.076 42.7371 263.191 42.0185 264.255 41.5611C265.927 40.9731 266.231 40.5811 266.231 38.9478V37.1185H253.817H241.402V39.3398Z" fill="#C13E14"/>
                    <path d="M371.224 37.9025C370.363 39.0131 370.363 143.024 371.224 144.134C371.68 144.722 376.292 144.918 388.909 144.918C404.161 144.918 406.036 144.788 406.644 143.808C407.252 142.958 407.354 133.942 407.354 91.0185C407.354 48.0945 407.252 39.0785 406.644 38.2291C406.036 37.2491 404.161 37.1185 388.909 37.1185C376.292 37.1185 371.68 37.3145 371.224 37.9025ZM394.635 50.5771C395.344 51.4918 395.446 56.0651 395.446 91.0185C395.446 125.972 395.344 130.545 394.635 131.46C393.52 132.962 384.196 132.962 383.082 131.46C382.372 130.545 382.271 125.972 382.271 91.0185C382.271 56.0651 382.372 51.4918 383.082 50.5771C383.69 49.7931 385.007 49.5318 388.858 49.5318C392.709 49.5318 394.027 49.7931 394.635 50.5771Z" fill="#C13E14"/>
                    <path d="M414.093 39.9278L416.221 42.7371V89.9731C416.272 141.652 416.373 138.973 413.384 139.953C412.37 140.28 412.167 140.802 412.167 142.632V144.918H424.075H435.983V142.958C435.983 141.129 435.882 140.998 433.906 140.998C432.234 140.998 431.524 140.606 430.105 138.777L428.382 136.556V118.524C428.382 104.542 428.534 100.492 429.041 100.492C429.396 100.492 431.575 108.658 434.716 121.725L439.784 143.024L441.507 142.828L443.229 142.632L447.435 124.992C449.817 115.257 452.046 105.784 452.502 103.889C452.958 101.864 453.566 100.492 454.023 100.492C455.087 100.492 455.087 133.42 454.023 136.752C453.212 139.234 450.982 140.998 448.651 140.998C447.283 140.998 447.131 141.194 447.131 142.958V144.918H459.039H470.947V142.632C470.947 140.737 470.744 140.345 469.934 140.345C469.326 140.345 468.312 139.626 467.653 138.712L466.387 137.144V90.2345V43.3904L468.768 40.2545L471.15 37.1185H462.992H454.783L449.259 59.1358C446.168 71.2878 443.28 82.9171 442.773 84.9425C442.267 87.0331 441.76 88.7318 441.557 88.7318C441.405 88.7318 438.314 77.1025 434.716 62.9251L428.18 37.1185H420.072H411.965L414.093 39.9278Z" fill="#C13E14"/>
                    <path d="M475.508 40.0584C475.508 42.6065 475.66 42.9985 476.572 42.9985C478.244 42.9985 479.612 44.2398 480.372 46.5918C480.98 48.4865 481.082 56.4571 481.082 93.5665V138.32L479.967 139.3C479.359 139.888 478.092 140.345 477.18 140.345C475.609 140.345 475.508 140.476 475.508 142.632V144.918H495.726C513.562 144.918 516.045 144.788 516.755 143.873C517.515 142.958 517.565 137.601 517.464 90.6265C517.312 45.0238 517.211 38.2944 516.552 37.7718C516.096 37.3798 507.431 37.1185 495.675 37.1185H475.508V40.0584ZM504.897 50.1851C505.505 50.7078 505.708 53.1251 505.81 64.0358C505.911 71.3531 505.86 78.5398 505.657 80.0425C505.151 84.4851 504.593 84.8118 498.259 84.8118H492.736V67.8251C492.736 52.4065 492.837 50.8385 493.648 50.2505C494.763 49.4011 503.884 49.3358 504.897 50.1851ZM504.847 99.7078C505.962 100.818 505.962 101.08 505.81 116.041C505.708 128.716 505.505 131.329 504.897 131.852C503.884 132.701 494.966 132.701 493.699 131.852C492.787 131.198 492.736 130.284 492.736 114.865V98.5318H498.259C502.769 98.5318 503.985 98.7278 504.847 99.7078Z" fill="#C13E14"/>
                    <path d="M534.794 39.4051C534.794 41.2998 534.997 41.6918 535.807 41.6918C537.581 41.6918 539.354 44.7625 539.354 47.7678C539.354 51.0998 525.774 137.797 525.065 138.842C524.811 139.3 524.153 139.822 523.595 140.018C522.886 140.345 522.633 141.064 522.633 142.697V144.918H532.26H541.888V142.958C541.888 141.456 541.635 140.933 540.621 140.606C537.733 139.692 537.885 137.797 542.141 113.689C542.395 112.317 542.648 112.252 546.905 112.252H551.364L553.897 124.796C556.684 138.516 556.684 139.822 553.847 140.214C552.732 140.41 552.529 140.737 552.529 142.697V144.918H562.41H572.292V142.697C572.292 140.802 572.089 140.476 570.923 140.149C570.113 139.953 569.201 139.169 568.897 138.45C568.339 137.274 561.296 88.7318 556.279 51.2958L554.404 37.1185H544.574H534.794V39.4051Z" fill="#C13E14"/>
                    <path d="M573.812 47.7025L573.862 58.3518L574.774 56.0651C576.396 52.0798 577.561 51.2305 581.463 50.9691L584.959 50.7078V93.8278C584.959 117.544 584.807 137.47 584.655 138.058C584.25 139.43 581.818 140.998 580.095 140.998C579.081 140.998 578.828 141.26 579.081 142.044C579.234 142.632 579.386 143.481 579.386 144.004C579.386 144.788 581.26 144.918 590.533 144.918H601.681V142.958C601.681 141.26 601.529 140.998 600.212 140.998C599.452 140.998 598.185 140.41 597.425 139.626L596.107 138.32V94.4811V50.7078L599.502 50.9691C602.796 51.2305 602.897 51.2958 605.076 54.4318L607.255 57.6331V47.3758V37.1185H590.533H573.812V47.7025Z" fill="#C13E14"/>
                    </svg>